<svg width="23" height="23" viewBox="0 0 23 23" fill="none" xmlns="http://www.w3.org/2000/svg">
<path d="M11.5 0C8.15606 0 5.43555 2.72051 5.43555 6.06445C5.43555 9.40839 8.15606 12.1289 11.5 12.1289C14.8439 12.1289 17.5645 9.40839 17.5645 6.06445C17.5645 2.72051 14.8439 0 11.5 0Z" fill="#7D8095"/>
<path d="M19.0453 16.0908C17.385 14.405 15.184 13.4766 12.8477 13.4766H10.1523C7.81605 13.4766 5.61496 14.405 3.95465 16.0908C2.30247 17.7684 1.39258 19.9827 1.39258 22.3262C1.39258 22.6983 1.69427 23 2.06641 23H20.9336C21.3057 23 21.6074 22.6983 21.6074 22.3262C21.6074 19.9827 20.6975 17.7684 19.0453 16.0908Z" fill="#7D8095"/>
</svg>
